<?xml version="1.0" standalone="no"?><svg xmlns="http://www.w3.org/2000/svg" viewBox="0 0 1440 320"><path fill="#DAD3BD" fill-opacity="1" d="M0,64L18.5,85.3C36.9,107,74,149,111,165.3C147.7,181,185,171,222,149.3C258.5,128,295,96,332,90.7C369.2,85,406,107,443,138.7C480,171,517,213,554,229.3C590.8,245,628,235,665,218.7C701.5,203,738,181,775,186.7C812.3,192,849,224,886,250.7C923.1,277,960,299,997,282.7C1033.8,267,1071,213,1108,208C1144.6,203,1182,245,1218,234.7C1255.4,224,1292,160,1329,122.7C1366.2,85,1403,75,1422,69.3L1440,64L1440,320L1421.5,320C1403.1,320,1366,320,1329,320C1292.3,320,1255,320,1218,320C1181.5,320,1145,320,1108,320C1070.8,320,1034,320,997,320C960,320,923,320,886,320C849.2,320,812,320,775,320C738.5,320,702,320,665,320C627.7,320,591,320,554,320C516.9,320,480,320,443,320C406.2,320,369,320,332,320C295.4,320,258,320,222,320C184.6,320,148,320,111,320C73.8,320,37,320,18,320L0,320Z"></path></svg>