<?xml version="1.0" standalone="no"?><svg xmlns="http://www.w3.org/2000/svg" viewBox="0 0 1440 320"><path fill="#DAD3BD" fill-opacity="1" d="M0,128L18.5,133.3C36.9,139,74,149,111,144C147.7,139,185,117,222,106.7C258.5,96,295,96,332,122.7C369.2,149,406,203,443,208C480,213,517,171,554,154.7C590.8,139,628,149,665,128C701.5,107,738,53,775,53.3C812.3,53,849,107,886,144C923.1,181,960,203,997,208C1033.8,213,1071,203,1108,213.3C1144.6,224,1182,256,1218,266.7C1255.4,277,1292,267,1329,234.7C1366.2,203,1403,149,1422,122.7L1440,96L1440,320L1421.5,320C1403.1,320,1366,320,1329,320C1292.3,320,1255,320,1218,320C1181.5,320,1145,320,1108,320C1070.8,320,1034,320,997,320C960,320,923,320,886,320C849.2,320,812,320,775,320C738.5,320,702,320,665,320C627.7,320,591,320,554,320C516.9,320,480,320,443,320C406.2,320,369,320,332,320C295.4,320,258,320,222,320C184.6,320,148,320,111,320C73.8,320,37,320,18,320L0,320Z"></path></svg>